<?xml version="1.0" encoding="UTF-8"?>
<svg width="286px" height="47px" viewBox="0 0 286 47" version="1.1" xmlns="http://www.w3.org/2000/svg" xmlns:xlink="http://www.w3.org/1999/xlink">
    <!-- Generator: Sketch 52.2 (67145) - http://www.bohemiancoding.com/sketch -->
    <title>Group 3</title>
    <desc>Created with Sketch.</desc>
    <g id="Page-1" stroke="none" stroke-width="1" fill="none" fill-rule="evenodd">
        <g id="Group-2" transform="translate(-504.000000, -154.000000)" fill="#546DE5">
            <g id="Group-3" transform="translate(501.000000, 142.000000)">
                <path d="M8.512,50.384 C8.38399936,51.109337 8.32,51.7066643 8.32,52.176 C8.32,52.9866707 8.45866528,53.5733315 8.736,53.936 C9.01333472,54.2986685 9.38666432,54.48 9.856,54.48 C10.7093376,54.48 11.4239971,54.4266672 12,54.32 C12.5760029,54.2133328 13.2693293,54.0106682 14.08,53.712 L14.08,57.36 C13.6959981,57.5733344 13.2480026,57.7546659 12.736,57.904 C12.2239974,58.0533341 11.701336,58.1706662 11.168,58.256 C10.634664,58.3413338 10.101336,58.4159997 9.568,58.48 C9.034664,58.5440003 8.5546688,58.576 8.128,58.576 C6.6346592,58.576 5.44000448,58.2346701 4.544,57.552 C3.64799552,56.8693299 3.2,55.6106758 3.2,53.776 C3.2,52.9226624 3.32799872,51.8773395 3.584,50.64 L11.52,13.2 L16.32,13.2 L8.512,50.384 Z M43.526,45.392 C43.184665,46.9706746 42.9500006,48.5706586 42.822,50.192 C42.6939994,51.8133414 42.63,53.327993 42.63,54.736 L42.63,56.56 C42.63,57.1360029 42.6726662,57.6586643 42.758,58.128 L39.174,58.128 L38.278,52.56 L38.022,52.56 C37.5099974,53.285337 36.8806704,54.0213296 36.134,54.768 C35.3873296,55.5146704 34.5660045,56.1866637 33.67,56.784 C32.7739955,57.3813363 31.8140051,57.8613315 30.79,58.224 C29.7659949,58.5866685 28.6780058,58.768 27.526,58.768 C22.4486413,58.768 19.91,55.4613664 19.91,48.848 C19.91,46.1173197 20.2619965,43.3440141 20.966,40.528 C21.6700035,37.7119859 22.7579926,35.1733446 24.23,32.912 C25.7020074,30.6506554 27.600655,28.7946739 29.926,27.344 C32.251345,25.8933261 35.0566502,25.168 38.342,25.168 C39.5366726,25.168 40.9979914,25.3066653 42.726,25.584 C44.4540086,25.8613347 46.0646592,26.2346643 47.558,26.704 L43.526,45.392 Z M28.998,54.672 C30.0220051,54.672 31.0033286,54.4266691 31.942,53.936 C32.8806714,53.4453309 33.7659958,52.837337 34.598,52.112 C35.4300042,51.386663 36.1659968,50.6080042 36.806,49.776 C37.4460032,48.9439958 37.9579981,48.165337 38.342,47.44 L41.926,30.16 C40.6459936,29.5626637 39.0246765,29.264 37.062,29.264 C35.0993235,29.264 33.3713408,29.8399942 31.878,30.992 C30.3846592,32.1440058 29.1260051,33.6479907 28.102,35.504 C27.0779949,37.3600093 26.3100026,39.4613216 25.798,41.808 C25.2859974,44.1546784 25.03,46.5013216 25.03,48.848 C25.03,50.4693414 25.3499968,51.8453277 25.99,52.976 C26.6300032,54.1066723 27.6326598,54.672 28.998,54.672 Z M71.116,30.224 C70.7319981,30.1386662 70.3373354,30.0746669 69.932,30.032 C69.5266646,29.9893331 69.153335,29.968 68.812,29.968 C66.6359891,29.968 64.7586746,30.6506598 63.18,32.016 C61.6013254,33.3813402 60.3640045,35.0453235 59.468,37.008 L55.052,58 L50.252,58 L57.036,26 L60.364,26 L60.364,31.504 L60.62,31.504 C61.1320026,30.6933293 61.6866637,29.9360035 62.284,29.232 C62.8813363,28.5279965 63.542663,27.8986694 64.268,27.344 C64.993337,26.7893306 65.7826624,26.3520016 66.636,26.032 C67.4893376,25.7119984 68.4279949,25.552 69.452,25.552 C70.3906714,25.552 71.3719949,25.7013318 72.396,26 L71.116,30.224 Z M95.122,45.392 C94.780665,46.9706746 94.5460006,48.5706586 94.418,50.192 C94.2899994,51.8133414 94.226,53.327993 94.226,54.736 L94.226,56.56 C94.226,57.1360029 94.2686662,57.6586643 94.354,58.128 L90.77,58.128 L89.874,52.56 L89.618,52.56 C89.1059974,53.285337 88.4766704,54.0213296 87.73,54.768 C86.9833296,55.5146704 86.1620045,56.1866637 85.266,56.784 C84.3699955,57.3813363 83.4100051,57.8613315 82.386,58.224 C81.3619949,58.5866685 80.2740058,58.768 79.122,58.768 C74.0446413,58.768 71.506,55.4613664 71.506,48.848 C71.506,46.1173197 71.8579965,43.3440141 72.562,40.528 C73.2660035,37.7119859 74.3539926,35.1733446 75.826,32.912 C77.2980074,30.6506554 79.196655,28.7946739 81.522,27.344 C83.847345,25.8933261 86.6526502,25.168 89.938,25.168 C91.1326726,25.168 92.5939914,25.3066653 94.322,25.584 C96.0500086,25.8613347 97.6606592,26.2346643 99.154,26.704 L95.122,45.392 Z M80.594,54.672 C81.6180051,54.672 82.5993286,54.4266691 83.538,53.936 C84.4766714,53.4453309 85.3619958,52.837337 86.194,52.112 C87.0260042,51.386663 87.7619968,50.6080042 88.402,49.776 C89.0420032,48.9439958 89.5539981,48.165337 89.938,47.44 L93.522,30.16 C92.2419936,29.5626637 90.6206765,29.264 88.658,29.264 C86.6953235,29.264 84.9673408,29.8399942 83.474,30.992 C81.9806592,32.1440058 80.7220051,33.6479907 79.698,35.504 C78.6739949,37.3600093 77.9060026,39.4613216 77.394,41.808 C76.8819974,44.1546784 76.626,46.5013216 76.626,48.848 C76.626,50.4693414 76.9459968,51.8453277 77.586,52.976 C78.2260032,54.1066723 79.2286598,54.672 80.594,54.672 Z" id="lara" fill-opacity="0.7"></path>
                <path d="M118.112,58 L121.76,40.592 C122.016001,39.3973274 122.218666,38.3413379 122.368,37.424 C122.517334,36.5066621 122.592,35.685337 122.592,34.96 C122.592,32.9973235 121.845341,32.016 120.352,32.016 C119.626663,32.016 118.901337,32.2079981 118.176,32.592 C117.450663,32.9760019 116.77867,33.4666637 116.16,34.064 C115.54133,34.6613363 114.965336,35.3119965 114.432,36.016 C113.898664,36.7200035 113.461335,37.3919968 113.12,38.032 L109.024,58 L101.152,58 L107.936,26 L114.08,26 L113.696,31.632 L113.952,31.632 C114.592003,30.9493299 115.28533,30.2240038 116.032,29.456 C116.77867,28.6879962 117.621329,27.9840032 118.56,27.344 C119.498671,26.7039968 120.543994,26.1706688 121.696,25.744 C122.848006,25.3173312 124.10666,25.104 125.472,25.104 C127.178675,25.104 128.469329,25.7226605 129.344,26.96 C130.218671,28.1973395 130.613334,29.8399898 130.528,31.888 C131.168003,31.0773293 131.903996,30.2666707 132.736,29.456 C133.568004,28.6453293 134.463995,27.9200032 135.424,27.28 C136.384005,26.6399968 137.407995,26.1173354 138.496,25.712 C139.584005,25.3066646 140.703994,25.104 141.856,25.104 C143.818676,25.104 145.322661,25.5626621 146.368,26.48 C147.413339,27.3973379 147.936,29.1146541 147.936,31.632 C147.936,33.4666758 147.616003,35.8559853 146.976,38.8 L142.944,58 L135.072,58 L138.848,40.016 C139.061334,39.0346618 139.231999,38.1173376 139.36,37.264 C139.488001,36.4106624 139.552,35.6640032 139.552,35.024 C139.552,34.0426618 139.370668,33.2960026 139.008,32.784 C138.645332,32.2719974 138.037338,32.016 137.184,32.016 C136.50133,32.016 135.808004,32.2186646 135.104,32.624 C134.399996,33.0293354 133.728003,33.5413302 133.088,34.16 C132.447997,34.7786698 131.861336,35.450663 131.328,36.176 C130.794664,36.901337 130.378668,37.5839968 130.08,38.224 L125.984,58 L118.112,58 Z M174.566,54.928 C173.243327,56.0373389 171.536677,56.9759962 169.446,57.744 C167.355323,58.5120038 164.923347,58.896 162.15,58.896 C158.693983,58.896 155.97401,57.8826768 153.99,55.856 C152.00599,53.8293232 151.014,51.0026848 151.014,47.376 C151.014,43.9626496 151.547328,40.8800138 152.614,38.128 C153.680672,35.3759862 155.077991,33.0400096 156.806,31.12 C158.534009,29.1999904 160.485989,27.7173386 162.662,26.672 C164.838011,25.6266614 167.013989,25.104 169.19,25.104 C170.939342,25.104 172.443327,25.3279978 173.702,25.776 C174.960673,26.2240022 175.995329,26.8426627 176.806,27.632 C177.616671,28.4213373 178.213998,29.3279949 178.598,30.352 C178.982002,31.3760051 179.174,32.4639942 179.174,33.616 C179.174,35.3653421 178.726004,36.9013267 177.83,38.224 C176.933996,39.5466733 175.686008,40.645329 174.086,41.52 C172.485992,42.394671 170.555345,43.0559978 168.294,43.504 C166.032655,43.9520022 163.558013,44.176 160.87,44.176 C160.528665,44.176 160.208668,44.1653334 159.91,44.144 C159.611332,44.1226666 159.291335,44.112 158.95,44.112 C158.864666,44.6240026 158.800667,45.0826646 158.758,45.488 C158.715333,45.8933354 158.694,46.266665 158.694,46.608 C158.694,48.5280096 159.195328,49.9573286 160.198,50.896 C161.200672,51.8346714 162.619324,52.304 164.454,52.304 C166.331343,52.304 168.016659,52.0266694 169.51,51.472 C171.003341,50.9173306 172.133996,50.3626694 172.902,49.808 L174.566,54.928 Z M160.102,39.12 C161.296673,39.12 162.565993,39.0773338 163.91,38.992 C165.254007,38.9066662 166.501994,38.7040016 167.654,38.384 C168.806006,38.0639984 169.765996,37.5946698 170.534,36.976 C171.302004,36.3573302 171.686,35.514672 171.686,34.448 C171.686,33.8079968 171.451336,33.1573366 170.982,32.496 C170.512664,31.8346634 169.531341,31.504 168.038,31.504 C166.160657,31.504 164.528674,32.2293261 163.142,33.68 C161.755326,35.1306739 160.742003,36.9439891 160.102,39.12 Z M183.148,26 L187.308,26 L188.588,19.984 L196.972,17.616 L195.18,26 L202.668,26 L201.196,32.592 L193.772,32.592 L190.636,47.056 C190.379999,48.2080058 190.252,49.146663 190.252,49.872 C190.252,50.8106714 190.465331,51.450665 190.892,51.792 C191.318669,52.133335 191.958662,52.304 192.812,52.304 C193.622671,52.304 194.358663,52.2186675 195.02,52.048 C195.681337,51.8773325 196.374663,51.6000019 197.1,51.216 L197.1,57.104 C196.630664,57.3600013 196.065337,57.6053322 195.404,57.84 C194.742663,58.0746678 194.028004,58.2666659 193.26,58.416 C192.491996,58.5653341 191.702671,58.6826662 190.892,58.768 C190.081329,58.8533338 189.33467,58.896 188.652,58.896 C186.475989,58.896 184.801339,58.3946717 183.628,57.392 C182.454661,56.3893283 181.868,54.8640102 181.868,52.816 C181.868,52.3893312 181.9,51.9413357 181.964,51.472 C182.028,51.0026643 182.102666,50.5120026 182.188,50 L185.9,32.592 L181.612,32.592 L183.148,26 Z M213.042,26 L213.106,31.632 L213.362,31.632 C214.300671,29.9253248 215.441993,28.4746726 216.786,27.28 C218.130007,26.0853274 219.82599,25.488 221.874,25.488 C222.770004,25.488 223.83666,25.658665 225.074,26 L223.09,32.848 C222.663331,32.7199994 222.258002,32.6133338 221.874,32.528 C221.489998,32.4426662 221.084669,32.4 220.658,32.4 C218.908658,32.4 217.298007,32.9653277 215.826,34.096 C214.353993,35.2266723 213.234004,36.5386592 212.466,38.032 L208.306,58 L200.434,58 L207.218,26 L213.042,26 Z M229.496,26 L237.368,26 L230.584,58 L222.712,58 L229.496,26 Z M230.776,16.912 C230.776,15.503993 231.234662,14.4160038 232.152,13.648 C233.069338,12.8799962 234.231993,12.496 235.64,12.496 C237.00534,12.496 238.167995,12.8799962 239.128,13.648 C240.088005,14.4160038 240.568,15.503993 240.568,16.912 C240.568,18.2773402 240.088005,19.3546627 239.128,20.144 C238.167995,20.9333373 237.00534,21.328 235.64,21.328 C234.231993,21.328 233.069338,20.9333373 232.152,20.144 C231.234662,19.3546627 230.776,18.2773402 230.776,16.912 Z M262.27,33.232 C261.459329,32.7626643 260.616671,32.4426675 259.742,32.272 C258.867329,32.1013325 257.918005,32.016 256.894,32.016 C255.741994,32.016 254.622005,32.3893296 253.534,33.136 C252.445995,33.8826704 251.464671,34.8639939 250.59,36.08 C249.715329,37.2960061 249.022003,38.7146586 248.51,40.336 C247.997997,41.9573414 247.742,43.6213248 247.742,45.328 C247.742,47.5040109 248.211329,49.1573277 249.15,50.288 C250.088671,51.4186723 251.325992,51.984 252.862,51.984 C254.142006,51.984 255.325995,51.7813354 256.414,51.376 C257.502005,50.9706646 258.472662,50.5120026 259.326,50 L260.798,55.376 C259.43266,56.4000051 257.843342,57.2426634 256.03,57.904 C254.216658,58.5653366 252.414009,58.896 250.622,58.896 C248.57399,58.896 246.83534,58.5973363 245.406,58 C243.97666,57.4026637 242.814004,56.5920051 241.918,55.568 C241.021996,54.5439949 240.360669,53.3706733 239.934,52.048 C239.507331,50.7253267 239.294,49.3386739 239.294,47.888 C239.294,44.3039821 239.805995,41.1040141 240.83,38.288 C241.854005,35.4719859 243.208658,33.093343 244.894,31.152 C246.579342,29.210657 248.499323,27.7173386 250.654,26.672 C252.808677,25.6266614 255.016655,25.104 257.278,25.104 C259.283343,25.104 260.872661,25.2959981 262.046,25.68 C263.219339,26.0640019 264.275329,26.4906643 265.214,26.96 L262.27,33.232 Z M265.668,50.512 C266.521338,50.9813357 267.619993,51.3973315 268.964,51.76 C270.308007,52.1226685 271.726659,52.304 273.22,52.304 C274.713341,52.304 275.854663,52.0160029 276.644,51.44 C277.433337,50.8639971 277.849333,49.9786726 277.892,48.784 C277.892,47.9306624 277.636003,47.1946698 277.124,46.576 C276.611997,45.9573302 275.961337,45.3706694 275.172,44.816 C274.382663,44.2613306 273.540004,43.6960029 272.644,43.12 C271.747996,42.5439971 270.905337,41.8826704 270.116,41.136 C269.326663,40.3893296 268.676003,39.5040051 268.164,38.48 C267.651997,37.4559949 267.396,36.2186739 267.396,34.768 C267.396,33.359993 267.673331,32.0586726 268.228,30.864 C268.782669,29.6693274 269.561328,28.6453376 270.564,27.792 C271.566672,26.9386624 272.78266,26.2773357 274.212,25.808 C275.64134,25.3386643 277.251991,25.104 279.044,25.104 C281.518679,25.104 283.566659,25.2853315 285.188,25.648 C286.809341,26.0106685 288.089329,26.4693306 289.028,27.024 L286.852,33.04 C285.998662,32.6559981 284.964006,32.3360013 283.748,32.08 C282.531994,31.8239987 281.262673,31.696 279.94,31.696 C278.57466,31.696 277.497337,31.9306643 276.708,32.4 C275.918663,32.8693357 275.524,33.6159949 275.524,34.64 C275.524,35.3226701 275.779997,35.930664 276.292,36.464 C276.804003,36.997336 277.454663,37.5413306 278.244,38.096 C279.033337,38.6506694 279.875996,39.2159971 280.772,39.792 C281.668004,40.3680029 282.510663,41.0613293 283.3,41.872 C284.089337,42.6826707 284.739997,43.6106614 285.252,44.656 C285.764003,45.7013386 286.02,46.9493261 286.02,48.4 C286.02,51.941351 284.868012,54.5759914 282.564,56.304 C280.259988,58.0320086 277.188019,58.896 273.348,58.896 C271.171989,58.896 269.177342,58.6933354 267.364,58.288 C265.550658,57.8826646 264.153338,57.3813363 263.172,56.784 L265.668,50.512 Z" id="metrics"></path>
            </g>
        </g>
    </g>
</svg>